<?xml version="1.0" encoding="UTF-8" standalone="no"?>
<!-- Created with Inkscape (http://www.inkscape.org/) -->

<svg
   xmlns:dc="http://purl.org/dc/elements/1.1/"
   xmlns:cc="http://creativecommons.org/ns#"
   xmlns:rdf="http://www.w3.org/1999/02/22-rdf-syntax-ns#"
   xmlns:svg="http://www.w3.org/2000/svg"
   xmlns="http://www.w3.org/2000/svg"
   xmlns:xlink="http://www.w3.org/1999/xlink"
   xmlns:sodipodi="http://sodipodi.sourceforge.net/DTD/sodipodi-0.dtd"
   xmlns:inkscape="http://www.inkscape.org/namespaces/inkscape"
   width="210mm"
   height="297mm"
   viewBox="0 0 210 297"
   version="1.1"
   id="svg8"
   inkscape:version="0.92.5 (2060ec1f9f, 2020-04-08)"
   sodipodi:docname="logo.svg">
  <defs
     id="defs2">
    <linearGradient
       inkscape:collect="always"
       id="linearGradient4549">
      <stop
         style="stop-color:#b3b3b3;stop-opacity:1"
         offset="0"
         id="stop4545" />
      <stop
         style="stop-color:#ececec;stop-opacity:1"
         offset="1"
         id="stop4547" />
    </linearGradient>
    <linearGradient
       inkscape:collect="always"
       id="linearGradient4541">
      <stop
         style="stop-color:#666666;stop-opacity:1"
         offset="0"
         id="stop4537" />
      <stop
         style="stop-color:#ffffff;stop-opacity:1"
         offset="1"
         id="stop4539" />
    </linearGradient>
    <linearGradient
       inkscape:collect="always"
       xlink:href="#linearGradient4541"
       id="linearGradient4543"
       x1="58.656933"
       y1="49.236607"
       x2="53.459763"
       y2="58.686012"
       gradientUnits="userSpaceOnUse" />
    <linearGradient
       inkscape:collect="always"
       xlink:href="#linearGradient4549"
       id="linearGradient5365"
       gradientUnits="userSpaceOnUse"
       x1="59.625744"
       y1="48.858631"
       x2="49.98735"
       y2="57.268604" />
  </defs>
  <sodipodi:namedview
     id="base"
     pagecolor="#ffffff"
     bordercolor="#666666"
     borderopacity="1.0"
     inkscape:pageopacity="0.0"
     inkscape:pageshadow="2"
     inkscape:zoom="1.4"
     inkscape:cx="408.05179"
     inkscape:cy="583.43538"
     inkscape:document-units="mm"
     inkscape:current-layer="layer1"
     showgrid="false"
     showguides="true"
     inkscape:guide-bbox="true"
     inkscape:window-width="2560"
     inkscape:window-height="1376"
     inkscape:window-x="1920"
     inkscape:window-y="27"
     inkscape:window-maximized="1" />
  <metadata
     id="metadata5">
    <rdf:RDF>
      <cc:Work
         rdf:about="">
        <dc:format>image/svg+xml</dc:format>
        <dc:type
           rdf:resource="http://purl.org/dc/dcmitype/StillImage" />
        <dc:title></dc:title>
      </cc:Work>
    </rdf:RDF>
  </metadata>
  <g
     inkscape:label="Layer 1"
     inkscape:groupmode="layer"
     id="layer1">
    <path
       style="fill:url(#linearGradient5365);stroke:none;stroke-width:0.26458332px;stroke-linecap:butt;stroke-linejoin:miter;stroke-opacity:1;fill-opacity:1"
       d="M 53.200149,63.788689 51.215774,49.614581 53.200149,42.905505 65.578867,54.717261 Z"
       id="path4529"
       inkscape:connector-curvature="0"
       sodipodi:nodetypes="ccccc" />
    <use
       x="0"
       y="0"
       xlink:href="#path4529"
       id="use4531"
       transform="matrix(-1,0,0,1,143.79607,-0.1889881)"
       width="100%"
       height="100%"
       style="fill-opacity:1;fill:url(#linearGradient4543)" />
    <path
       style="fill:#b3b3b3;stroke:#000000;stroke-width:0.26458332px;stroke-linecap:butt;stroke-linejoin:miter;stroke-opacity:1"
       d="m 71.154017,85.333331 -3.307292,-2.740327 -1.039434,-4.063243 7.843006,0.09449 -0.755954,4.252233 z"
       id="path4533"
       inkscape:connector-curvature="0" />
    <path
       style="fill:none;stroke:#000000;stroke-width:0.26458332px;stroke-linecap:butt;stroke-linejoin:miter;stroke-opacity:1"
       d="m 70.020089,92.798362 -3.96875,-2.645834 -5.10268,-9.827381 5.197173,-6.047618 -7.370534,-4.630209 4.346725,-2.456844 2.929316,1.41741"
       id="path4535"
       inkscape:connector-curvature="0" />
    <path
       style="fill:#cccccc;stroke:none;stroke-width:0.26458332px;stroke-linecap:butt;stroke-linejoin:miter;stroke-opacity:1"
       d="m 172.05279,109.1241 -9.68852,-9.554881 -2.39955,-5.56351 -4.12759,-3.72608 0.44676,-10.42154 -2.07609,-14.621541 2.65926,-7.075926 9.17216,8.601261 17.50616,0.267269 9.17216,-8.813178 2.85497,7.476831 -2.61063,13.405404 0.57369,10.56779 -5.24682,4.27419 -2.33795,5.82948 -9.51496,9.346401 z"
       id="path5382"
       inkscape:connector-curvature="0"
       sodipodi:nodetypes="ccccccccccccccccc" />
    <path
       style="fill:#ffffff;stroke:none;stroke-width:0.26458332px;stroke-linecap:butt;stroke-linejoin:miter;stroke-opacity:1"
       d="m 162.95008,84.150519 3.5393,-0.888714 2.73744,0.431744 c 0.50245,1.413032 0.95472,2.897809 1.55677,4.40208 l -4.97758,-1.63513 z"
       id="path5386"
       inkscape:connector-curvature="0"
       sodipodi:nodetypes="cccccc" />
    <path
       style="fill:#4d4d4d;stroke:#000000;stroke-width:0.26458332px;stroke-linecap:butt;stroke-linejoin:miter;stroke-opacity:1"
       d="m 21.650307,121.59028 3.87426,2.26785 3.87425,1.41741 6.99256,-2.07886 -4.53571,0.18898 -2.55134,-1.60639 -2.55134,1.32291 z"
       id="path5392"
       inkscape:connector-curvature="0" />
    <use
       x="0"
       y="0"
       xlink:href="#path5386"
       id="use5394"
       transform="matrix(-1,0,0,1,348.25622,-2.0926456e-7)"
       width="100%"
       height="100%"
       style="stroke:none" />
    <path
       style="fill:#ffffff;stroke:none;stroke-width:0.26458332px;stroke-linecap:butt;stroke-linejoin:miter;stroke-opacity:1"
       d="m 171.27227,94.609009 6.33111,0.0277 -3.18514,2.49123 z"
       id="path5400"
       inkscape:connector-curvature="0"
       sodipodi:nodetypes="cccc" />
    <path
       style="fill:#ffffff;stroke:none;stroke-width:0.26458332px;stroke-linecap:butt;stroke-linejoin:miter;stroke-opacity:1"
       d="m 169.9541,101.34576 4.36966,1.35731 4.13006,-1.22368 -4.13007,-1.39251 z"
       id="path5400-7"
       inkscape:connector-curvature="0"
       sodipodi:nodetypes="ccccc" />
    <path
       style="fill:#cccccc;stroke:none;stroke-width:0.15774092px;stroke-linecap:butt;stroke-linejoin:miter;stroke-opacity:1"
       d="m 122.2543,237.95774 -4.10572,-2.62289 c -1.07163,-2.79917 -2.27142,-5.54126 -3.49049,-8.27783 l 1.13498,-6.28 -2.10637,-8.65034 1.58542,-4.21857 2.22403,-3.97099 -0.43707,5.02104 3.74817,5.41425 4.74008,-1.26296 5.69685,1.15503 3.93152,-5.45474 -1.02383,-4.69008 3.03978,5.2513 1.15612,3.02773 -2.49186,8.45984 1.27746,5.83265 c -0.98599,2.75038 -2.09147,5.45351 -3.18558,8.16183 l -4.26953,3.36721 -0.63443,-3.98357 -3.15995,1.40213 -3.22857,-1.53776 z"
       id="path5382-7"
       inkscape:connector-curvature="0"
       sodipodi:nodetypes="ccccccccccccccccccccccc" />
    <path
       style="fill:#ffffff;stroke:none;stroke-width:0.15774092px;stroke-linecap:butt;stroke-linejoin:miter;stroke-opacity:1"
       d="m 118.89873,222.93521 2.11008,-0.0621 1.96611,0.52468 c 0.29956,0.84243 0.2351,1.46036 0.59404,2.35719 l -2.96757,-0.97485 z"
       id="path5386-3"
       inkscape:connector-curvature="0"
       sodipodi:nodetypes="cccccc" />
    <use
       x="0"
       y="0"
       xlink:href="#path5386-3"
       id="use5394-6"
       transform="matrix(-1,0,0,1,251.12583,-1.2092646e-6)"
       width="100%"
       height="100%"
       style="stroke:none" />
    <path
       style="fill:#ffffff;stroke:none;stroke-width:0.15774092px;stroke-linecap:butt;stroke-linejoin:miter;stroke-opacity:1"
       d="m 123.96291,228.29368 3.77452,0.0165 -1.89893,1.48524 z"
       id="path5400-5"
       inkscape:connector-curvature="0"
       sodipodi:nodetypes="cccc" />
    <path
       style="fill:#cccccc;stroke:none;stroke-width:0.15774092px;stroke-linecap:butt;stroke-linejoin:miter;stroke-opacity:1"
       d="m 185.78594,234.35768 -11.47625,-1.58345 6.33794,-11.62852 -4.37423,-6.85495 -2.28883,-9.22675 5.47222,1.99499 5.07109,4.09133 5.68502,-0.41251 4.75191,0.30458 4.87646,-3.65935 5.41774,-1.61215 -2.24567,7.84693 -3.15332,6.75895 6.50186,12.95504 -11.2621,1.19385 -3.01609,3.28445 -2.99754,-0.0296 z"
       id="path5382-7-3"
       inkscape:connector-curvature="0"
       sodipodi:nodetypes="cccccccccccccccccc" />
    <path
       style="fill:#ffffff;stroke:none;stroke-width:0.15774092px;stroke-linecap:butt;stroke-linejoin:miter;stroke-opacity:1"
       d="m 182.60121,226.7776 2.11008,-0.0621 1.96611,0.52468 c 0.29956,0.84243 0.2351,1.46036 0.59404,2.35719 l -2.96757,-0.97485 z"
       id="path5386-3-9"
       inkscape:connector-curvature="0"
       sodipodi:nodetypes="cccccc" />
    <use
       x="0"
       y="0"
       xlink:href="#path5386-3-9"
       id="use5394-6-4"
       transform="matrix(-1,0,0,1,381.17661,0.09449579)"
       width="100%"
       height="100%"
       style="stroke:none" />
    <path
       style="fill:#ffffff;stroke:none;stroke-width:0.26458332px;stroke-linecap:butt;stroke-linejoin:miter;stroke-opacity:1"
       d="m 122.74157,231.74721 3.07331,-1.21946 2.87981,1.12496 0.2074,1.29882 -2.94772,-1.33189 -3.25181,1.31438 z"
       id="path5535"
       inkscape:connector-curvature="0"
       sodipodi:nodetypes="ccccccc" />
    <path
       style="fill:#cccccc;stroke:none;stroke-width:0.26458332px;stroke-linecap:butt;stroke-linejoin:miter;stroke-opacity:1"
       d="m 70.49002,187.92221 -9.68852,-9.55488 -2.39955,-5.56351 -4.12759,-3.72608 0.44676,-10.42154 -2.34336,-13.28519 2.65926,-7.07592 9.17216,8.60126 8.616226,-1.20888 8.889934,1.47615 9.17216,-8.81318 2.85497,7.47683 -2.61063,13.4054 0.84096,9.23144 -5.24682,4.27419 -2.33795,5.82948 -9.51496,9.3464 z"
       id="path5382-8"
       inkscape:connector-curvature="0"
       sodipodi:nodetypes="cccccccccccccccccc" />
    <path
       style="fill:#ffffff;stroke:none;stroke-width:0.26458332px;stroke-linecap:butt;stroke-linejoin:miter;stroke-opacity:1"
       d="m 61.38731,162.94863 3.5393,-0.88871 2.73744,0.43174 c 0.50245,1.41304 0.95472,2.89781 1.55677,4.40208 l -4.97758,-1.63513 z"
       id="path5386-1"
       inkscape:connector-curvature="0"
       sodipodi:nodetypes="cccccc" />
    <use
       x="0"
       y="0"
       xlink:href="#path5386-1"
       id="use5394-2"
       transform="matrix(-1,0,0,1,145.13068,5.4447259e-6)"
       width="100%"
       height="100%"
       style="stroke:none" />
    <path
       style="fill:#ffffff;stroke:none;stroke-width:0.26458332px;stroke-linecap:butt;stroke-linejoin:miter;stroke-opacity:1"
       d="m 69.7095,173.40712 6.33111,0.0277 -3.18514,2.49123 z"
       id="path5400-9"
       inkscape:connector-curvature="0"
       sodipodi:nodetypes="cccc" />
    <path
       style="fill:#ffffff;stroke:none;stroke-width:0.36724198px;stroke-linecap:butt;stroke-linejoin:miter;stroke-opacity:1"
       d="m 68.586315,179.98281 4.265758,-1.69261 3.99718,1.56145 0.287872,1.80276 -4.091439,-1.84867 -4.513517,1.82437 z"
       id="path5535-9"
       inkscape:connector-curvature="0"
       sodipodi:nodetypes="ccccccc" />
  </g>
</svg>
